<?xml version="1.0" ?>
<!-- Uploaded to: SVG Repo, www.svgrepo.com, Generator: SVG Repo Mixer Tools -->
<svg fill="#000000" width="800px" height="800px" viewBox="-4.28 0 33.747 33.747" xmlns="http://www.w3.org/2000/svg">
<g transform="translate(-419.453 -513.19)">
<path d="M438.707,543.937H425.373V535.89a1,1,0,0,1,2,0v6.047h9.334V535.89a1,1,0,0,1,2,0Z"/>
<path d="M437.7,536.89a1,1,0,0,1-.49-1.873,10.584,10.584,0,1,0-10.353,0,1,1,0,1,1-.977,1.746,12.6,12.6,0,1,1,12.307,0A1,1,0,0,1,437.7,536.89Z"/>
<path d="M428.258,546.937a1,1,0,0,1-1-1v-3a1,1,0,0,1,2,0v3A1,1,0,0,1,428.258,546.937Z"/>
<path d="M435.821,546.937a1,1,0,0,1-1-1v-3a1,1,0,0,1,2,0v3A1,1,0,0,1,435.821,546.937Z"/>
<path d="M432.04,543.937a1,1,0,0,1-1-1v-17.9a1,1,0,0,1,2,0v17.9A1,1,0,0,1,432.04,543.937Z"/>
</g>
</svg>